<svg version="1.2" xmlns="http://www.w3.org/2000/svg" viewBox="0 0 1578 655" width="1578" height="655">
	<title>64404bc94780b904d3067c13_Group logo-svg</title>
	<style>
		.s0 { fill: #b71b4b } 
		.s1 { fill: #0085ac } 
	</style>
	<path id="Layer" class="s0" d="m71.5 505.7c-39.6 0-71.5-31.9-71.5-71.3 0-39.5 31.9-71.4 71.5-71.4 39.5 0 71.4 31.9 71.4 71.4 0 39.4-31.9 71.3-71.4 71.3z"/>
	<path id="Layer" fill-rule="evenodd" class="s1" d="m933 1h84.1v84.1h-84.1zm126.1 0h84.1v84h-84.1zm-545.8 569.6h84v84h-84zm126.1 0h84.1v84h-84.1zm727.7-570.6h84.1v84h-84.1zm209.9 169.9v168c0 92.8-75.2 168.1-168.1 168.1h-228.3v-78.9c-29.6 47.2-82.2 78.9-142.2 78.9h-272.6v-79.2c-29.7 47.5-82.4 79.2-142.5 79.2h-109.8v-79c-29.7 47.3-82.3 79-142.5 79-92.7 0-168-75.2-168-168.1 0-92.8 75.2-168 168-168h168.2v168c0 30.7-8.3 59.4-22.6 84.1h106.7c46.4 0 84.1-37.7 84.1-84.1v-168h84.1v168c0 30.7-8.4 59.4-22.7 84.1h101.5v-84.1h-0.1c0-73 46.6-135.2 111.9-158.4 17.5-6.2 36.4-9.6 56.1-9.6 92.9 0 168.1 75.2 168.2 168 0 30.7-8.4 59.4-22.7 84.1h80.1c-14.6-24.1-23-53-23-84.1 0-92.8 75.3-168 168.1-168zm-1121.9 84h-84.1c-46.4 0-84 37.7-84 84 0 46.4 37.5 84.1 84 84.1 46.5 0 84.1-37.7 84.1-84.1zm667.2 84.2v-0.1c0-46.4-37.6-84.1-84-84.1-46.5 0-84.1 37.7-84.1 84.1h-0.3v84h84.4c46.3 0.8 83.9-37.6 84-83.9zm370.8-84.2h-84.1c-46.4 0-84 37.7-84 84.1 0 46.3 37.6 84 84 84 46.5 0 84.1-37.7 84.1-84z"/>
</svg>